<?xml version="1.0" encoding="UTF-8"?>
<svg xmlns="http://www.w3.org/2000/svg" xmlns:xlink="http://www.w3.org/1999/xlink" width="36px" height="32px" viewBox="0 0 35 32" version="1.1">
<g id="surface1">
<path style=" stroke:none;fill-rule:nonzero;fill:rgb(0%,0%,0%);fill-opacity:1;" d="M 1.863281 0 L 1.863281 1.804688 L 5.332031 1.804688 L 5.332031 0 L 7.125 0 L 7.125 4.316406 L 27.875 4.316406 L 27.875 0 L 29.664062 0 L 29.664062 1.804688 L 33.132812 1.804688 L 33.132812 0 L 34.925781 0 L 34.925781 32 L 33.132812 32 L 33.132812 29.914062 L 29.664062 29.914062 L 29.664062 32 L 27.875 32 L 27.875 27.488281 L 7.125 27.488281 L 7.125 32 L 5.335938 32 L 5.335938 29.914062 L 1.863281 29.914062 L 1.863281 32 L 0.0742188 32 L 0.0742188 0 Z M 14.511719 16.648438 L 18.171875 12.761719 L 20.542969 15.097656 L 16.84375 19.03125 Z M 20.417969 11.167969 C 20.308594 11.058594 20.179688 11.003906 20.035156 11.011719 C 19.890625 11.011719 19.761719 11.070312 19.660156 11.183594 L 18.816406 12.082031 L 21.1875 14.425781 L 22.042969 13.511719 C 22.144531 13.402344 22.1875 13.265625 22.1875 13.117188 C 22.1875 12.972656 22.128906 12.832031 22.027344 12.734375 Z M 15.980469 19.949219 C 15.667969 20.058594 15.351562 20.152344 15.039062 20.261719 C 14.726562 20.367188 14.414062 20.472656 14.097656 20.582031 C 13.351562 20.824219 12.949219 20.964844 12.859375 20.988281 C 12.773438 21.011719 12.828125 20.660156 13.011719 19.929688 L 13.601562 17.617188 L 13.648438 17.566406 Z M 27.875 6.148438 L 7.125 6.148438 L 7.125 25.65625 L 27.875 25.65625 Z M 33.136719 28.082031 L 33.136719 24.660156 L 29.667969 24.660156 L 29.667969 28.082031 Z M 33.136719 22.828125 L 33.136719 19.40625 L 29.667969 19.40625 L 29.667969 22.828125 Z M 33.136719 17.570312 L 33.136719 14.148438 L 29.667969 14.148438 L 29.667969 17.570312 Z M 33.136719 12.316406 L 33.136719 8.894531 L 29.667969 8.894531 L 29.667969 12.316406 Z M 33.136719 7.0625 L 33.136719 3.640625 L 29.667969 3.640625 L 29.667969 7.0625 Z M 5.332031 28.082031 L 5.332031 24.660156 L 1.863281 24.660156 L 1.863281 28.082031 Z M 5.332031 22.828125 L 5.332031 19.40625 L 1.863281 19.40625 L 1.863281 22.828125 Z M 5.332031 17.570312 L 5.332031 14.148438 L 1.863281 14.148438 L 1.863281 17.570312 Z M 5.332031 12.316406 L 5.332031 8.894531 L 1.863281 8.894531 L 1.863281 12.316406 Z M 5.332031 7.0625 L 5.332031 3.640625 L 1.863281 3.640625 L 1.863281 7.0625 Z M 5.332031 7.0625 "/>
</g>
</svg>
